<svg width="24" height="30" viewBox="0 0 24 30" fill="none" xmlns="http://www.w3.org/2000/svg">
<path d="M1.19282 4.95215C8.09602 4.95215 14.9016 4.95215 21.789 4.95215C21.789 5.69045 21.7917 6.41415 21.7843 7.13785C21.7837 7.20516 21.7341 7.2911 21.6804 7.33598C20.9891 7.91299 20.9946 8.68791 20.9967 9.4984C21.0123 15.3037 20.9717 21.1091 21.0267 26.914C21.042 28.5231 19.9834 29.5804 18.4338 29.5838C13.805 29.5946 9.17638 29.596 4.54758 29.5812C2.93889 29.5762 1.94764 28.4611 1.96118 26.9036C2.01347 20.8867 1.99039 14.8689 1.96457 8.85175C1.96288 8.44492 1.79291 7.97522 1.54779 7.65031C1.28151 7.29745 1.167 6.97317 1.18689 6.55005C1.21145 6.03505 1.19282 5.51794 1.19282 4.95215ZM7.97685 24.4034C7.97685 19.5424 7.97685 14.7159 7.97685 9.86247C7.37316 9.86247 6.80589 9.86247 6.20919 9.86247C6.20919 14.7226 6.20919 19.5496 6.20919 24.4034C6.81245 24.4034 7.37994 24.4034 7.97685 24.4034ZM15.5798 9.86057C15.5798 14.7425 15.5798 19.5531 15.5798 24.3813C16.1911 24.3813 16.7698 24.3813 17.3322 24.3813C17.3322 19.5045 17.3322 14.6824 17.3322 9.86057C16.7247 9.86057 16.1721 9.86057 15.5798 9.86057ZM12.3978 24.3974C12.3978 19.5479 12.3978 14.7184 12.3978 9.87221C11.796 9.87221 11.2315 9.87221 10.6352 9.87221C10.6352 14.7292 10.6352 19.5434 10.6352 24.3974C11.2332 24.3974 11.7996 24.3974 12.3978 24.3974Z" fill="#FAFFFA"/>
<path d="M0.317505 4.40056C0.317505 3.93975 0.317505 3.52488 0.317505 3.03317C0.553729 3.03317 0.760319 3.03317 0.96712 3.03317C2.49136 3.03317 4.0158 3.04227 5.53983 3.02047C5.72292 3.01793 6.01397 2.88902 6.06837 2.74699C6.62295 1.30361 7.69527 0.546256 9.19368 0.489317C10.8102 0.427932 12.4354 0.431531 14.0498 0.526147C15.4136 0.606159 16.3881 1.36584 16.861 2.67185C16.984 3.01137 17.1872 3.03359 17.4727 3.03253C18.9392 3.02639 20.4054 3.02978 21.8719 3.02999C22.1204 3.02999 22.3689 3.02999 22.6606 3.02999C22.6606 3.50562 22.6606 3.93361 22.6606 4.40034C15.2104 4.40056 7.77697 4.40056 0.317505 4.40056ZM7.96557 2.98872C10.3424 2.98872 12.6354 2.98872 15.0057 2.98872C14.7079 2.4388 14.2818 2.19411 13.7664 2.18522C12.2642 2.15961 10.7609 2.16299 9.25845 2.18141C8.73033 2.18797 8.30085 2.43541 7.96557 2.98872Z" fill="#FAFFFA"/>
</svg>
