<?xml version="1.0" encoding="utf-8"?>
<!-- Generator: Adobe Illustrator 17.0.0, SVG Export Plug-In . SVG Version: 6.00 Build 0)  -->
<!DOCTYPE svg PUBLIC "-//W3C//DTD SVG 1.1//EN" "http://www.w3.org/Graphics/SVG/1.1/DTD/svg11.dtd">
<svg version="1.1" id="Capa_1" xmlns="http://www.w3.org/2000/svg" xmlns:xlink="http://www.w3.org/1999/xlink" x="0px" y="0px"
	 width="274px" height="112px" viewBox="0 0 274 112" enable-background="new 0 0 274 112" xml:space="preserve">
<g id="XMLID_1_">
	<g>
		<path fill="#1A1A1A" d="M263.771,61.4c0,0.67,0,1.33,0,2c-5.8,8.61-11.45,8.01-17.47-1.86c-1.09,1-1.96,2.05-2.74,3.38
			c-1.99,3.38-6.49,3.51-9.18,0.54c-0.83-0.92-1.21-2.79-2.87-1.91c-4.49,2.39-6.21,0.11-7.23-3.87c-0.61-2.38-1.68-2.9-3.55-0.81
			c-2.21,2.48-4.66,4.75-6.97,7.15c-3.49,3.61-6.75,3.5-9.44-0.7c-1.52-2.37-2.6-2.4-4.48-0.46c-3.55,3.67-9.46,4.04-13.34-0.53
			c-2.21-2.61-2.57-0.71-3.79-0.01c-0.28,0.16-5.93,5.76-9.67,4.94c-3.73-0.81-2.46-4.92-2.38-6.06c-2.18,1.47-4.62,2.67-6.49,4.47
			c-4.09,3.89-5.22,9.09-6.59,14.47c-2.5,9.87-18.7,20.5-18.79,20.25c-0.09-0.24-0.79,0.78-4,0c-3.21-0.77-4.12-10.06,1.5-15.28
			c5.18-4.8,10.81-9.13,15.97-13.91c7.14-6.63,8.52-16.22,10.35-25.25c0.46-2.25,2.01-4.57,0.95-7.19
			c-1.97,0.66-2.96,2.48-4.33,3.83c-1.08,1.07-2.04,1.04-2.9-0.11c-0.74-0.98-1.14-2.45,0.16-2.97c7.66-3.08,9.09-10.23,11.32-16.88
			c0.14-0.42,0.36-0.82,0.7-1.59c2.11,1.64,3.31,2.49,2.69,5.91c-1.32,7.32-1.35,14.89-3.45,22.11c-1.06,3.64-2.52,7.16-3.92,11.06
			c7.85-4.87,9.09-13.6,12.82-21.09c3.28,3.96,1.24,7.45,0.54,10.92c-0.7,3.44-2.59,6.84-0.53,10.6c4.75-2.35,6.6-6.94,8.79-11.02
			c0.98-1.82,1.88-4.31,3.61-3.81c1.67,0.49,2.36,3.26,2.64,5.36c0.11,0.77-0.35,1.61-0.44,2.42c-0.28,2.52,1.56,4.09,3.2,5.13
			c1.25,0.78,3.21-0.12,4.68-1.07c3.33-2.16,5.21-4.69,4.77-9.16c-0.67-6.88,1.2-13.35,4.62-19.5c2.15-3.86,4.04-2.81,5.81-0.33
			c1.87,2.64,2,5.79,0.9,8.92c-1.58,4.55-2.86,9.24-4.8,13.63c-1.29,2.91-0.87,5.42-0.07,8.88c5.01-4.2,9.54-8.04,12.45-13.49
			c0.79-1.48,0.9-4.09,3.04-3.86c1.35,0.15,1.58,2.38,2.01,3.94c0.78,2.82,0.66,7.16,4.05,7.5c2.99,0.3,5.22-2.83,6.91-5.74
			c2.49-4.32,7.04-6,11.41-7.78c2.08-0.85,2.6,0.83,3.18,2.04c1.19,2.5-0.19,4.8-0.93,7.1c-1.55,4.86,0.31,10.29,4.44,12.31
			C260.061,65.55,261.231,61.61,263.771,61.4z M241.161,61.26c3.27-2.27,3.62-6.03,4.49-9.55c-2.65,2.2-5.54,4.03-7.09,7.24
			c-0.43,0.9-1.07,1.48-0.23,2.55C239.481,62.98,240.651,61.61,241.161,61.26z M209.171,49.21c1.42-5.21,3.48-8.97,2.19-14.11
			C209.341,39.59,208.291,43.55,209.171,49.21z M150.991,86.78c1.76-2.65,2.65-5.17,0.39-8.03c-6.04,3.87-10.48,9.2-15.43,13.98
			c-1.62,1.57-2.59,3.48-0.81,5.31c1.63,1.67,4,1.38,5.52-0.11C144.281,94.39,148.151,91.08,150.991,86.78z"/>
		<path fill="#202020" d="M231.751,31.14c0.12,2.19-0.86,3.02-2.26,3.19c-1.96,0.24-3.2-1.32-3.52-2.74
			c-0.34-1.49,1.35-2.86,2.63-3.01C230.391,28.38,230.971,30.36,231.751,31.14z"/>
		<path fill="#1A1A1A" d="M132.281,59.37c0.6-0.34,1.25-1.2,2.19-0.6c-2.47,5.09-9.17,6.66-12.88,2.81
			c-1.67-1.73-2.83-1.68-4.91-0.73c-2.52,1.15-5.98,1.66-6.64-2.05c-0.48-2.64-1.54-2.12-2.4-1.46l-1.9-2.28
			c3.41-2.62,6.54-5.55,9.71-8.42c0.84-0.77,1.8-1.59,2.63-1.82c2.22-0.62,4.69-2.82,6.87-0.61c2.07,2.11,0.76,4.67-0.43,6.81
			c-1.64,2.94-0.72,5.53,1.14,7.67C127.431,60.74,129.851,60.76,132.281,59.37z M116.151,57.22c2.2-2.09,5.79-3.51,2.73-8.75
			c-1.47,1.93-2.88,3.9-4.43,5.75c-0.74,0.88-0.88,1.82-0.45,2.67C114.431,57.73,115.671,57.68,116.151,57.22z"/>
		<path fill="#1A1A1A" d="M105.741,55.06l1.9,2.28c-0.21,0.16-0.42,0.34-0.6,0.47c-1.94,1.49-3.42,3.54-5.81,4.47
			c-2.09,0.8-3.93,2.27-5.66-1.03c-0.77-1.49-2.65-1.11-4.38-0.42l-0.98-2.66c1.66,0,2.46-1.34,3.09-2.84
			c1.18-2.83,0.4-5.9,0.46-8.85c0.13-6.05,0.59-11.99,4.08-17.18c1.25-1.85,2.5-4.53,5.23-3.72c2.46,0.73,2.57,3.22,2.83,5.7
			c0.91,8.93-2.08,16.72-6.46,24.14c-0.53,0.89-0.66,1.33-0.08,2.04c0.94,1.15,1.66,0.88,2.88,0.09
			C103.441,56.76,104.611,55.93,105.741,55.06z M98.111,48.81c2.34-5.6,4.63-10.33,3.32-16.1
			C97.991,37.47,97.251,42.53,98.111,48.81z"/>
		<path fill="#1A1A1A" d="M90.211,58.17l0.98,2.66c-0.29,0.11-0.57,0.23-0.84,0.36c-4.64,2.12-5.17,1.91-9.03-1.66
			c-5.42,4.97-10.62,3.93-14.68-3.24c-3.63,4.1-8.07,5.86-13.52,5.18c-2.04-0.26-3.83-0.83-4.19-2.74
			c-0.44-2.26,2.28-1.88,3.19-2.05c3.47-0.65,1.84-2.87,1.6-4.4c-0.4-2.64-2.48-4.15-4.71-5.77c-4.45,15.98-18.12,16.19-30.65,17.74
			c-6.08,0.75-8.21-2.95-5.93-8.86c3.45-8.93,3.86-18.69,7.54-27.55c1.01-2.44-1.12-1.28-1.78-1.38c-1.11-0.15-1.33-0.67-1.38-1.61
			c-0.06-1.11,0.53-1.38,1.49-1.44c8.53-0.56,16.95-2.54,25.6-1.92c-0.86,2.77-0.88,3-3.05,2.87c-3.99-0.25-7.84,0.59-11.74,1.03
			c-5.81,0.64-7.85,3.56-8.39,11.02c-0.27,3.77,0.18,5.89,4.66,5.08c1.02-0.19,2.82-0.97,3.36,0.93c0.67,2.43-1.76,1.83-2.8,2.52
			c-0.62,0.41-1.63,0.58-2.37,0.42c-4.6-0.96-5.75,1.86-6.83,5.5c-2.48,8.38-2.01,9.41,6.45,8.39c3.76-0.45,7.87,0.16,11.2-1.2
			c7.01-2.86,11.52-8.31,12.39-16.19c0.15-1.3-0.21-2.77,1.44-3.36c1.18-0.42,2.21,0.55,2.5,1.21c2.47,5.71,9.21,9.18,8.4,16.92
			c8.21-4.17,7.39-11.79,7.95-18.99c-1.21-0.78-3.02-0.07-4.72-0.21c-1.39-0.11-1.57-0.87-1.56-1.97c0.01-1.04,0.06-1.72,1.43-2.09
			c7.56-2.03,7.55-2.09,7.58-10.1c0-1.16,0-2.32,0-3.54c5.24,1.69,5.3,1.93,3.49,13.41c1.16,0.09,2.3,0.29,3.44,0.24
			c1.45-0.07,2.11,0.35,2.1,1.93c-0.01,1.42-0.33,2.3-1.92,2.08c-6.55-0.89-5.13,4.81-5.92,7.89c-0.99,3.92,0.32,8.07,4.04,10.32
			c2.61,1.58,2.79-0.85,2.75-2.75c-0.09-4.28-0.15-8.45,4.15-11.19c4.1-2.61,7.44-1.21,7.81,3.68c0.21,2.72,0.49,5.46-1.78,7.89
			c-0.82,0.87-2.81,3.29,0.61,4.59C89.201,58.06,89.731,58.17,90.211,58.17z M83.421,53c1.02-2.41,3.36-4.46,1.76-7.96
			C81.391,47.41,80.701,49.87,83.421,53z"/>
	</g>
	<g>
	</g>
</g>
</svg>
