<svg width="40" height="40" viewBox="0 0 40 40" fill="none" xmlns="http://www.w3.org/2000/svg">
<path d="M20.0003 0C31.046 0 40.0007 8.95405 40.0007 20.0003C40.0007 31.046 31.046 40 20.0003 40C8.9547 40 0 31.046 0 20.0003C0 8.95405 8.9547 0 20.0003 0ZM28.3751 12.2817C28.3751 10.9629 28.3777 9.64407 28.3738 8.32592C28.3719 7.60788 27.9281 7.24429 27.2277 7.37461C27.0778 7.40263 26.926 7.42348 26.7761 7.45345C24.6018 7.88741 22.4275 8.32071 20.2538 8.75857C18.6633 9.0785 17.0747 9.40885 15.4836 9.72682C14.6183 9.90014 14.2833 10.2911 14.2833 11.1662C14.284 13.7953 14.2853 16.4244 14.2859 19.0536C14.2859 21.0637 14.2873 23.0732 14.2833 25.0833C14.282 25.7349 13.9504 26.1193 13.3412 26.2334C12.457 26.3989 11.5688 26.55 10.7127 26.8335C9.64603 27.1866 8.90518 27.8493 8.59568 28.9752C8.12067 30.7019 9.39061 32.8456 11.8028 32.6378C12.2315 32.6006 12.6629 32.527 13.0831 32.4149C13.766 32.2325 14.368 31.9126 14.8502 31.3887C15.4985 30.6856 15.7742 29.8288 15.7774 28.8957C15.7911 24.8272 15.7852 20.7594 15.7891 16.6909C15.7891 16.5391 15.7983 16.3853 15.8204 16.2355C15.8836 15.7944 15.9957 15.6614 16.4238 15.5689C17.2637 15.3878 18.1055 15.2151 18.948 15.0483C20.287 14.7825 21.6247 14.5114 22.965 14.2514C23.6655 14.1159 24.3646 13.9641 25.0644 13.8227C25.4951 13.7354 25.9193 13.5953 26.3669 13.6037C26.6569 13.6096 26.8289 13.764 26.8667 14.0533C26.8771 14.1322 26.8752 14.2136 26.8752 14.2938C26.8765 17.0356 26.8778 19.7768 26.8778 22.5187C26.8778 23.2459 26.6126 23.5723 25.9011 23.7274C25.8066 23.7482 25.7101 23.7573 25.6163 23.7789C24.7797 23.9678 23.9274 24.0864 23.1142 24.3816C21.4651 24.9791 20.648 26.8081 21.3491 28.3386C21.7974 29.3167 22.5617 29.9265 23.6355 30.0406C24.5555 30.1389 25.4638 29.9832 26.3265 29.6307C27.0146 29.3492 27.5294 28.8566 27.8897 28.2194C28.2585 27.5678 28.3666 26.8406 28.3679 26.1017C28.3738 23.1677 28.3699 20.2329 28.3699 17.2982C28.3719 17.2982 28.3738 17.2982 28.3751 17.2982C28.3751 15.6263 28.3751 13.9536 28.3751 12.2817Z" fill="#FAFFFA"/>
<path d="M28.3738 8.32582C28.3777 9.64397 28.3751 10.9628 28.3751 12.2816C28.3751 13.9535 28.3751 15.6261 28.3751 17.2981C28.3738 17.2981 28.3718 17.2981 28.3699 17.2981C28.3699 20.2328 28.3738 23.1676 28.3679 26.1016C28.3666 26.8405 28.2584 27.5677 27.8896 28.2193C27.5293 28.8565 27.0146 29.3491 26.3265 29.6306C25.4638 29.9831 24.5555 30.1388 23.6355 30.0405C22.5616 29.9264 21.7973 29.3165 21.3491 28.3385C20.6479 26.808 21.465 24.979 23.1142 24.3815C23.9274 24.0863 24.7796 23.9677 25.6163 23.7787C25.7101 23.7572 25.8065 23.7481 25.901 23.7273C26.6125 23.5722 26.8777 23.2458 26.8777 22.5186C26.8777 19.7767 26.8764 17.0355 26.8751 14.2937C26.8751 14.2135 26.8771 14.1321 26.8666 14.0532C26.8289 13.7639 26.6568 13.6095 26.3669 13.6036C25.9192 13.5952 25.4951 13.7353 25.0644 13.8226C24.3646 13.964 23.6654 14.1158 22.965 14.2513C21.6247 14.5113 20.287 14.7823 18.948 15.0482C18.1055 15.215 17.2636 15.3877 16.4237 15.5688C15.9956 15.6613 15.8836 15.7943 15.8204 16.2354C15.7982 16.3852 15.7891 16.539 15.7891 16.6908C15.7852 20.7593 15.7911 24.8271 15.7774 28.8956C15.7741 29.8287 15.4985 30.6855 14.8502 31.3886C14.368 31.9125 13.7659 32.2324 13.0831 32.4148C12.6628 32.5269 12.2315 32.6005 11.8027 32.6377C9.39056 32.8455 8.12062 30.7018 8.59562 28.9751C8.90513 27.8492 9.64598 27.1865 10.7126 26.8334C11.5688 26.5499 12.4569 26.3988 13.3411 26.2333C13.9503 26.1192 14.282 25.7348 14.2833 25.0832C14.2872 23.0731 14.2859 21.0636 14.2859 19.0535C14.2852 16.4243 14.2839 13.7952 14.2833 11.1661C14.2833 10.291 14.6182 9.90004 15.4835 9.72672C17.0747 9.40875 18.6632 9.0784 20.2537 8.75847C22.4274 8.3206 24.6017 7.8873 26.7761 7.45335C26.9259 7.42337 27.0778 7.40252 27.2276 7.37451C27.9281 7.24419 28.3718 7.60777 28.3738 8.32582Z" fill="#802377"/>
</svg>
