<svg width="40" height="40" viewBox="0 0 40 40" fill="none" xmlns="http://www.w3.org/2000/svg">
<path d="M20.0395 0.0498047C31.0645 0.0498047 39.9995 8.99335 39.9995 20.0226C39.9995 31.0547 31.0645 39.9982 20.0395 39.9982C9.01457 39.9982 0.0767822 31.0547 0.0767822 20.0226C0.0767822 8.99335 9.01457 0.0498047 20.0395 0.0498047ZM26.9723 10.4754C26.9723 8.97919 26.9723 7.65012 26.9723 6.02067C25.1315 6.02067 23.3388 5.90449 21.566 6.05185C19.7422 6.20487 18.2497 7.19104 17.5191 8.87433C16.9951 10.0759 16.7686 11.4389 16.6015 12.7538C16.4542 13.9242 16.5703 15.1258 16.5703 16.435C15.2421 16.435 14.0499 16.3981 12.8633 16.4605C12.5602 16.4775 12.0278 16.8034 12.0193 17.0102C11.9457 18.4952 11.9797 19.9829 11.9797 21.5869C13.5684 21.5869 15.0099 21.5869 16.6072 21.5869C16.6072 25.8319 16.6072 29.9608 16.6072 34.0699C18.5046 34.0699 20.2406 34.0699 22.0899 34.0699C22.0899 29.8758 22.0899 25.7696 22.0899 21.5642C23.4634 21.5642 24.7237 21.5642 26.0717 21.5642C26.3379 19.8412 26.5928 18.2061 26.8732 16.3896C25.1485 16.3896 23.639 16.3896 22.1805 16.3896C22.1097 16.1686 22.0701 16.1006 22.0701 16.0297C22.0616 15.0549 22.0474 14.0829 22.0531 13.1081C22.0644 11.4333 22.8829 10.5718 24.5849 10.4839C25.358 10.4443 26.1368 10.4754 26.9723 10.4754Z" fill="white"/>
<path d="M26.9722 6.02056C26.9722 7.65001 26.9722 8.97907 26.9722 10.4753C26.1368 10.4753 25.358 10.4442 24.5849 10.4838C22.8828 10.5717 22.0644 11.4332 22.0531 13.108C22.0474 14.0828 22.0615 15.0548 22.07 16.0296C22.07 16.1005 22.1097 16.1685 22.1805 16.3895C23.639 16.3895 25.1484 16.3895 26.8731 16.3895C26.5927 18.206 26.3379 19.8411 26.0717 21.5641C24.7236 21.5641 23.4634 21.5641 22.0899 21.5641C22.0899 25.7695 22.0899 29.8757 22.0899 34.0698C20.2406 34.0698 18.5046 34.0698 16.6071 34.0698C16.6071 29.9607 16.6071 25.8318 16.6071 21.5868C15.0099 21.5868 13.5684 21.5868 11.9796 21.5868C11.9796 19.9828 11.9456 18.4951 12.0193 17.0101C12.0278 16.8033 12.5602 16.4774 12.8632 16.4604C14.0498 16.398 15.2421 16.4349 16.5703 16.4349C16.5703 15.1256 16.4542 13.9241 16.6015 12.7537C16.7685 11.4388 16.9951 10.0758 17.519 8.87422C18.2497 7.19093 19.7421 6.20476 21.5659 6.05173C23.3388 5.90437 25.1314 6.02056 26.9722 6.02056Z" fill="#802377"/>
</svg>
