<svg width="40" height="40" viewBox="0 0 40 40" fill="none" xmlns="http://www.w3.org/2000/svg">
<path d="M20.0384 15.4955C22.507 15.5097 24.5273 17.547 24.5188 20.0156C24.516 21.1988 24.0677 22.2742 23.3327 23.0829C23.2817 23.1368 23.2334 23.1908 23.1795 23.2418C23.1398 23.2816 23.0972 23.3213 23.0575 23.3582C23.0036 23.4064 22.9497 23.4546 22.8958 23.5029C22.8929 23.5 22.8929 23.5 22.8929 23.5029C22.0984 24.1555 21.0826 24.5442 19.976 24.5386C17.4393 24.5272 15.4304 22.4871 15.4502 19.9418C15.4587 18.7614 15.9042 17.7031 16.642 16.9114C16.6902 16.8603 16.7384 16.8093 16.7895 16.761C16.8292 16.7185 16.8718 16.6787 16.9172 16.6447C16.9711 16.5964 17.025 16.5482 17.0818 16.5028C17.8791 15.8644 18.9063 15.487 20.0384 15.4955Z" fill="#FAFFFA"/>
<path d="M15.4501 19.9418C15.4302 22.487 17.4392 24.5272 19.9759 24.5385C21.0825 24.5442 22.0983 24.1555 22.8928 23.5029C22.0955 24.1753 21.0655 24.5783 19.939 24.5726C17.4051 24.5612 15.3962 22.5211 15.416 19.973C15.4246 18.7756 15.8842 17.7059 16.6418 16.9114C15.9041 17.703 15.4586 18.7614 15.4501 19.9418Z" fill="black"/>
<path d="M29.8701 28.2269C29.9041 28.1674 29.9353 28.1079 29.9665 28.0483C29.9353 28.1107 29.9041 28.1702 29.8701 28.2269Z" fill="black"/>
<path d="M25.5913 9.48578C28.5224 9.51983 30.4689 11.4607 30.5001 14.3719C30.5427 18.1628 30.5455 21.9537 30.5001 25.7446C30.4916 26.5845 30.3072 27.3563 29.9808 28.0202C29.9752 28.0316 29.9723 28.0401 29.9667 28.0486C29.9354 28.1082 29.9042 28.1678 29.8702 28.2274C29.7992 28.3522 29.7255 28.4742 29.6432 28.5906C29.6035 28.6473 29.5609 28.7041 29.5183 28.7608C29.5155 28.7665 29.5098 28.7722 29.507 28.7778C28.704 29.805 27.4668 30.4378 25.9545 30.4775C22.016 30.5825 18.0719 30.5796 14.1335 30.4803C11.3414 30.4122 9.49989 28.3721 9.47151 25.5828C9.45449 23.7072 9.46868 21.8317 9.46868 19.9561C9.46868 18.1146 9.45449 16.2759 9.47151 14.4372C9.47719 13.8129 9.5765 13.2227 9.7581 12.6865C9.78364 12.6098 9.81201 12.5332 9.84039 12.4595C9.8716 12.3857 9.90281 12.3119 9.93402 12.241C10.161 11.7359 10.4675 11.2876 10.8392 10.9045C11.6961 10.0277 12.9077 9.49997 14.3321 9.48578C18.0833 9.44322 21.8373 9.44322 25.5913 9.48578ZM13.078 19.9703C13.078 23.8264 16.1538 26.9647 19.9645 26.9931C23.798 27.0214 27.0355 23.8122 27.027 19.993C27.0213 16.2362 23.815 13.0355 20.044 13.0184C16.2616 12.9986 13.078 16.1766 13.078 19.9703ZM28.3521 13.2625C28.4032 12.4963 27.6938 11.7217 26.9135 11.6905C26.102 11.6565 25.3557 12.3318 25.3841 13.1461C25.4125 13.9945 25.8296 14.562 26.7376 14.6301C27.5747 14.6926 28.2982 14.0712 28.3521 13.2625Z" fill="#FAFFFA"/>
<path d="M14.3406 32.7644C16.2162 32.8013 18.0918 32.7701 19.9674 32.7701V32.7673C21.9196 32.7673 23.8717 32.8155 25.8239 32.7559C29.9042 32.6339 32.7077 29.8106 32.7616 25.7275C32.8127 21.8997 32.8098 18.0691 32.7673 14.2442C32.7219 10.2008 29.717 7.25828 25.6594 7.23275C21.8685 7.21288 18.0804 7.20721 14.2896 7.23558C10.2263 7.26396 7.21288 10.3341 7.20721 14.4087C7.20153 18.0861 7.20437 21.7635 7.20721 25.4409C7.21004 29.7368 10.0617 32.6793 14.3406 32.7644ZM20.0014 0C31.0477 0 40.0028 8.9551 40.0028 20.0014C40.0028 31.0477 31.0477 40 20.0014 40C8.9551 40 0 31.0477 0 20.0014C0 8.9551 8.9551 0 20.0014 0Z" fill="#FAFFFA"/>
<path d="M19.9645 26.993C16.1537 26.9646 13.0779 23.8264 13.0779 19.9702C13.0779 16.1765 16.2615 12.9985 20.0439 13.0184C23.8149 13.0354 27.0213 16.2361 27.027 19.9929C27.0355 23.8122 23.7979 27.0214 19.9645 26.993ZM24.5527 19.9816C24.5612 17.5158 22.5409 15.4757 20.0723 15.4615C18.9231 15.453 17.8817 15.8417 17.0816 16.5028C17.0248 16.5454 16.9709 16.5936 16.917 16.6447C16.8716 16.6788 16.829 16.7185 16.7893 16.761C16.7382 16.8093 16.6872 16.8604 16.6418 16.9114C15.8842 17.7059 15.4245 18.7757 15.416 19.9731C15.3961 22.5211 17.405 24.5613 19.9389 24.5726C21.0654 24.5783 22.0954 24.1754 22.8927 23.5029C22.8927 23.5001 22.8927 23.5001 22.8956 23.5029C22.9523 23.4547 23.0062 23.4093 23.0573 23.3582C23.097 23.3213 23.1396 23.2816 23.1793 23.2419C23.2332 23.1908 23.2843 23.1369 23.3325 23.083C24.0873 22.2714 24.5498 21.1818 24.5527 19.9816Z" fill="#802377"/>
<path d="M17.0815 16.5027C17.0248 16.548 16.971 16.5962 16.9171 16.6444C16.971 16.5934 17.0248 16.5452 17.0815 16.5027Z" fill="black"/>
<path d="M29.5183 28.7606C29.5608 28.7039 29.6033 28.6473 29.643 28.5906C29.6062 28.6473 29.5637 28.7039 29.5183 28.7606Z" fill="black"/>
<path d="M19.9675 32.7701C18.092 32.7701 16.2164 32.8013 14.3408 32.7644C10.0619 32.6793 7.21022 29.7368 7.20738 25.4409C7.20454 21.7635 7.2017 18.0861 7.20738 14.4087C7.21305 10.3341 10.2265 7.26396 14.2897 7.23559C18.0806 7.20721 21.8687 7.21289 25.6595 7.23275C29.7171 7.25829 32.722 10.2008 32.7674 14.2442C32.81 18.0691 32.8128 21.8997 32.7618 25.7275C32.7078 29.8106 29.9044 32.6339 25.8241 32.7559C23.8719 32.8155 21.9197 32.7673 19.9675 32.7673V32.7701ZM30.5088 25.736C30.5542 21.9451 30.5485 18.1542 30.5088 14.3633C30.4776 11.4493 28.5282 9.50841 25.5971 9.4772C21.846 9.43464 18.092 9.43464 14.338 9.4772C12.9079 9.49422 11.6963 10.022 10.8394 10.9045C10.4676 11.2875 10.1612 11.7358 9.9342 12.2409C9.90015 12.3118 9.86894 12.3856 9.84056 12.4594C9.81219 12.5332 9.78381 12.6098 9.75828 12.6864C9.571 13.2255 9.46885 13.8185 9.46318 14.4485C9.44899 16.2872 9.46034 18.1259 9.46034 19.9645C9.46034 21.8401 9.44615 23.7185 9.46602 25.5941C9.49155 28.3805 11.3331 30.4207 14.128 30.4916C18.0636 30.5909 22.0077 30.5909 25.9461 30.4888C27.467 30.449 28.707 29.8106 29.5072 28.7778C29.51 28.7721 29.5157 28.7664 29.5185 28.7607C29.5639 28.704 29.6065 28.6472 29.6434 28.5905C29.7256 28.4742 29.7994 28.3521 29.8704 28.2273C29.9044 28.1705 29.9356 28.111 29.9668 28.0485C29.9725 28.04 29.9753 28.0315 29.981 28.0202C30.313 27.3533 30.4974 26.5816 30.5088 25.736Z" fill="#802377"/>
<path d="M26.9135 11.6904C27.6938 11.7217 28.4032 12.4963 28.3521 13.2624C28.2982 14.0711 27.5746 14.6925 26.7376 14.6301C25.8296 14.562 25.4125 13.9945 25.3841 13.1461C25.3557 12.3317 26.102 11.6564 26.9135 11.6904Z" fill="#802377"/>
<path d="M9.93385 12.241C9.90268 12.3118 9.8715 12.3855 9.84033 12.4592C9.86867 12.3855 9.89984 12.3118 9.93385 12.241Z" fill="black"/>
<path d="M23.1793 23.2417C23.2332 23.1907 23.2813 23.1369 23.3323 23.083C23.2842 23.1369 23.2332 23.1907 23.1793 23.2417Z" fill="black"/>
<path d="M25.5912 9.48575C21.8372 9.44318 18.0832 9.44318 14.3321 9.48575C12.9076 9.49993 11.696 10.0277 10.8391 10.9045C11.696 10.022 12.9076 9.49426 14.3377 9.47723C18.0917 9.43467 21.8457 9.43467 25.5969 9.47723C28.528 9.50845 30.4773 11.4493 30.5085 14.3634C30.5483 18.1543 30.5539 21.9451 30.5085 25.736C30.4972 26.5816 30.3128 27.3534 29.9808 28.0202C30.3071 27.3562 30.4915 26.5844 30.5 25.7445C30.5454 21.9536 30.5426 18.1628 30.5 14.3719C30.4688 11.4606 28.5223 9.5198 25.5912 9.48575Z" fill="black"/>
<path d="M20.0722 15.4616C22.5409 15.4758 24.5611 17.5159 24.5526 19.9817C24.5498 21.1819 24.0873 22.2715 23.3325 23.083C24.0674 22.2744 24.5157 21.199 24.5186 20.0157C24.5271 17.5471 22.5068 15.5098 20.0382 15.4956C18.906 15.4871 17.8789 15.8645 17.0815 16.5029C17.8817 15.8418 18.9231 15.4531 20.0722 15.4616Z" fill="black"/>
<path d="M22.8958 23.5027C22.9496 23.4545 23.0034 23.4063 23.0573 23.3582C23.0063 23.4092 22.9524 23.4545 22.8958 23.5027Z" fill="black"/>
<path d="M14.1279 30.4915C11.333 30.4205 9.49144 28.3804 9.46591 25.594C9.44604 23.7184 9.46023 21.84 9.46023 19.9644C9.46023 18.1257 9.44888 16.287 9.46307 14.4484C9.46874 13.8184 9.57089 13.2254 9.75817 12.6863C9.57657 13.2226 9.47726 13.8128 9.47158 14.437C9.45456 16.2757 9.46874 18.1144 9.46874 19.9559C9.46874 21.8315 9.45456 23.7071 9.47158 25.5826C9.49996 28.3719 11.3415 30.412 14.1336 30.4801C18.072 30.5794 22.0161 30.5823 25.9545 30.4773C27.4669 30.4376 28.704 29.8048 29.5071 28.7776C28.7069 29.8105 27.4669 30.4489 25.946 30.4887C22.0076 30.5908 18.0635 30.5908 14.1279 30.4915Z" fill="black"/>
<path d="M16.7892 16.761C16.7382 16.8092 16.69 16.8602 16.6418 16.9112C16.6872 16.8602 16.7382 16.8092 16.7892 16.761Z" fill="black"/>
</svg>
