<svg width="40" height="40" viewBox="0 0 40 40" fill="none" xmlns="http://www.w3.org/2000/svg">
<path d="M28.8224 27.7096C29.4124 28.0365 29.5251 28.7509 29.2659 29.2771C28.9598 29.899 28.2377 30.1152 27.604 29.7935C26.8369 29.4047 26.0796 28.9925 25.2949 28.6422C23.6936 27.9271 22.0239 27.4179 20.3015 27.0877C19.2211 26.8807 18.1343 26.7179 17.0324 26.6892C16.1781 26.6664 15.3211 26.6208 14.4687 26.6599C12.9468 26.7289 11.4438 26.9601 9.96039 27.3118C9.34436 27.4576 8.70032 27.0734 8.53817 26.4782C8.3643 25.8381 8.69316 25.1673 9.31896 24.9948C9.92067 24.8287 10.5348 24.7011 11.1508 24.5995C11.9114 24.4738 12.6785 24.3898 13.4437 24.2941C13.6599 24.2667 13.8793 24.2498 14.0975 24.2472C14.6087 24.24 15.1192 24.2446 15.6304 24.2446C19.4523 24.2355 23.1231 24.9778 26.6058 26.5739C27.3598 26.9191 28.0964 27.3072 28.8224 27.7096Z" fill="#802377"/>
<path d="M31.2456 21.9591C31.8285 22.2639 32.1521 22.9327 32.0525 23.5578C31.947 24.2253 31.4058 24.7815 30.741 24.8824C30.3463 24.9423 29.9784 24.8466 29.6261 24.6538C27.9454 23.7343 26.1786 23.0154 24.3481 22.4541C22.9832 22.036 21.5981 21.6948 20.1811 21.5137C19.1418 21.3802 18.0979 21.2747 17.0527 21.207C16.2081 21.153 15.3563 21.136 14.5111 21.1699C12.7632 21.2402 11.0297 21.4545 9.321 21.8393C8.42494 22.0412 7.54126 21.4121 7.42991 20.5102C7.32637 19.6695 7.85449 18.8698 8.90162 18.7103C9.93638 18.5534 10.9666 18.3619 12.0039 18.2304C12.7763 18.1327 13.5577 18.1021 14.3359 18.0493C14.7657 18.0207 15.1961 18.009 15.7698 17.9829C16.6418 18.0311 17.6577 18.0526 18.6664 18.1483C22.3047 18.4935 25.8016 19.3915 29.1318 20.9068C29.8482 21.2331 30.5482 21.5945 31.2456 21.9591Z" fill="#802377"/>
<path d="M33.941 15.5395C35.0291 16.1113 35.3352 17.4013 34.6384 18.3957C34.1214 19.1341 33.0931 19.3959 32.255 19.0078C31.1506 18.4973 30.0605 17.9516 28.9352 17.4918C26.8077 16.6225 24.608 15.9797 22.3431 15.5825C21.3415 15.4067 20.3335 15.2549 19.3228 15.1488C18.3669 15.0485 17.4037 15.0029 16.4426 14.9704C15.6259 14.9424 14.8074 14.9404 13.9914 14.9762C13.1918 15.0114 12.3914 15.0811 11.5976 15.1846C10.5602 15.3201 9.53005 15.5102 8.49464 15.6645C7.40843 15.8267 6.4401 15.1553 6.26558 14.0763C6.09236 13.0089 6.75137 12.0686 7.81804 11.8654C8.77466 11.6837 9.73583 11.5236 10.7003 11.3888C11.3697 11.295 12.0469 11.2461 12.7229 11.2019C13.6977 11.1374 14.6745 11.0957 15.4853 11.0527C16.5285 11.0925 17.405 11.1022 18.2783 11.1641C21.4692 11.3901 24.5962 11.9631 27.6484 12.9308C29.8208 13.6198 31.9229 14.4794 33.941 15.5395Z" fill="#802377"/>
<path d="M25.295 28.6423C26.0797 28.9926 26.837 29.4048 27.6042 29.7936C28.2378 30.1153 28.96 29.8991 29.266 29.2772C29.5252 28.751 29.4125 28.0367 28.8226 27.7098C28.0965 27.3073 27.36 26.9192 26.6059 26.5741C23.1232 24.978 19.4524 24.2356 15.6305 24.2447C15.1193 24.2447 14.6088 24.2401 14.0976 24.2473C13.8794 24.2499 13.66 24.2668 13.4438 24.2942C12.6786 24.3899 11.9115 24.4739 11.1509 24.5996C10.5349 24.7012 9.92078 24.8288 9.31907 24.9949C8.69327 25.1675 8.36441 25.8382 8.53828 26.4783C8.70043 27.0735 9.34447 27.4577 9.96051 27.3119C11.4439 26.9602 12.9469 26.729 14.4688 26.66C15.3212 26.6209 16.1782 26.6665 17.0326 26.6893C18.1344 26.718 19.2212 26.8808 20.3016 27.0879C22.024 27.418 23.6937 27.9273 25.295 28.6423ZM32.255 19.0077C33.0931 19.3959 34.1214 19.1341 34.6384 18.3956C35.3352 17.4012 35.0292 16.1112 33.941 15.5394C31.9229 14.4793 29.8209 13.6197 27.6484 12.9307C24.5963 11.963 21.4692 11.39 18.2783 11.164C17.405 11.1022 16.5285 11.0924 15.4853 11.0527C14.6746 11.0956 13.6978 11.1373 12.7229 11.2018C12.047 11.2461 11.3697 11.2949 10.7003 11.3887C9.73584 11.5235 8.77467 11.6837 7.81806 11.8654C6.75139 12.0685 6.09237 13.0089 6.26559 14.0762C6.44011 15.1552 7.40845 15.8266 8.49465 15.6645C9.53006 15.5101 10.5603 15.32 11.5976 15.1845C12.3914 15.081 13.1918 15.0113 13.9914 14.9762C14.8074 14.9403 15.626 14.9423 16.4426 14.9703C17.4037 15.0029 18.3669 15.0484 19.3228 15.1487C20.3335 15.2549 21.3416 15.4066 22.3431 15.5824C24.608 15.9797 26.8077 16.6224 28.9352 17.4917C30.0605 17.9515 31.1506 18.4972 32.255 19.0077ZM29.6261 24.6537C29.9784 24.8464 30.3464 24.9421 30.741 24.8822C31.4059 24.7813 31.947 24.2252 32.0525 23.5577C32.1522 22.9325 31.8285 22.2638 31.2457 21.959C30.5482 21.5943 29.8482 21.2329 29.1319 20.9066C25.8016 19.3913 22.3047 18.4933 18.6664 18.1482C17.6577 18.0524 16.6418 18.0309 15.7699 17.9828C15.1962 18.0088 14.7657 18.0205 14.3359 18.0492C13.5577 18.1019 12.7763 18.1325 12.004 18.2302C10.9666 18.3618 9.93641 18.5532 8.90165 18.7101C7.85452 18.8697 7.3264 19.6694 7.42994 20.5101C7.54129 21.412 8.42498 22.041 9.32103 21.8392C11.0298 21.4543 12.7633 21.2401 14.5111 21.1697C15.3564 21.1359 16.2081 21.1528 17.0527 21.2069C18.0979 21.2746 19.1418 21.3801 20.1811 21.5136C21.5981 21.6946 22.9832 22.0358 24.3482 22.4539C26.1787 23.0152 27.9454 23.7342 29.6261 24.6537ZM39.9796 20.0112C39.9809 30.9892 31.0419 40.1314 19.7233 39.9986C8.80267 39.8696 -0.0328307 30.9508 0.000380557 20.0204C-0.0673444 9.04566 8.91272 -0.116743 20.2085 0.00112468C31.1493 0.115085 39.9783 9.02287 39.9796 20.0112Z" fill="#FAFFFA"/>
</svg>
